<svg width="30" height="30" viewBox="0 0 30 30" fill="none" xmlns="http://www.w3.org/2000/svg">
<path d="M23.7495 13.7501H9.78704L15.887 7.65008C16.3745 7.16258 16.3745 6.36258 15.887 5.87508C15.7714 5.7592 15.634 5.66726 15.4828 5.60454C15.3316 5.54181 15.1695 5.50952 15.0058 5.50952C14.8421 5.50952 14.68 5.54181 14.5288 5.60454C14.3775 5.66726 14.2402 5.7592 14.1245 5.87508L5.88704 14.1126C5.77116 14.2282 5.67923 14.3656 5.6165 14.5168C5.55377 14.668 5.52148 14.8301 5.52148 14.9938C5.52148 15.1575 5.55377 15.3196 5.6165 15.4709C5.67923 15.6221 5.77116 15.7594 5.88704 15.8751L14.1245 24.1126C14.2403 24.2283 14.3777 24.3201 14.5289 24.3827C14.6801 24.4454 14.8421 24.4776 15.0058 24.4776C15.1695 24.4776 15.3315 24.4454 15.4827 24.3827C15.6339 24.3201 15.7713 24.2283 15.887 24.1126C16.0028 23.9968 16.0946 23.8595 16.1572 23.7083C16.2198 23.557 16.2521 23.395 16.2521 23.2313C16.2521 23.0677 16.2198 22.9056 16.1572 22.7544C16.0946 22.6032 16.0028 22.4658 15.887 22.3501L9.78704 16.2501H23.7495C24.437 16.2501 24.9995 15.6876 24.9995 15.0001C24.9995 14.3126 24.437 13.7501 23.7495 13.7501Z" fill="#616161"/>
</svg>
