<svg width="20" height="20" viewBox="0 0 20 20" fill="none" xmlns="http://www.w3.org/2000/svg">
<path d="M8.53583 13.595L5 10.0583L6.17833 8.87996L8.53583 11.2366L13.2492 6.52246L14.4283 7.70163L8.53583 13.595Z" fill="#23209F"/>
<path fill-rule="evenodd" clip-rule="evenodd" d="M0.833008 10.0002C0.833008 4.93766 4.93717 0.833496 9.99967 0.833496C15.0622 0.833496 19.1663 4.93766 19.1663 10.0002C19.1663 15.0627 15.0622 19.1668 9.99967 19.1668C4.93717 19.1668 0.833008 15.0627 0.833008 10.0002ZM9.99967 17.5002C9.01476 17.5002 8.03949 17.3062 7.12955 16.9293C6.21961 16.5523 5.39281 15.9999 4.69637 15.3035C3.99993 14.607 3.44749 13.7802 3.07058 12.8703C2.69367 11.9603 2.49967 10.9851 2.49967 10.0002C2.49967 9.01525 2.69367 8.03998 3.07058 7.13004C3.44749 6.22009 3.99993 5.3933 4.69637 4.69686C5.39281 4.00042 6.21961 3.44798 7.12955 3.07107C8.03949 2.69416 9.01476 2.50016 9.99967 2.50016C11.9888 2.50016 13.8965 3.29034 15.303 4.69686C16.7095 6.10338 17.4997 8.01104 17.4997 10.0002C17.4997 11.9893 16.7095 13.8969 15.303 15.3035C13.8965 16.71 11.9888 17.5002 9.99967 17.5002Z" fill="#23209F"/>
</svg>
