<svg width="25" height="25" viewBox="0 0 25 25" fill="none" xmlns="http://www.w3.org/2000/svg">
<rect width="25" height="25" rx="12.5" fill="#23209F"/>
<g clip-path="url(#clip0_434_5624)">
<path d="M13.3809 4.78813V6.18468H14.3413C14.6377 6.18468 14.9292 6.27406 15.1866 6.44276L16.4444 7.26505C16.4821 7.28963 16.5224 7.30192 16.5653 7.30192H18.7434C18.9374 7.30192 19.1234 7.3902 19.2605 7.54734C19.3976 7.70449 19.4747 7.91762 19.4747 8.13985C19.4747 8.36208 19.3976 8.57521 19.2605 8.73236C19.1234 8.8895 18.9374 8.97778 18.7434 8.97778H18.3271L20.3854 14.2199C20.4462 14.375 20.4644 14.5476 20.4376 14.7148C20.4107 14.882 20.3402 15.036 20.2352 15.1561L19.7184 14.564L20.2342 15.1572L20.2332 15.1595L20.2313 15.1617L20.2254 15.1684L20.2196 15.174L20.2098 15.1852L20.166 15.2299C19.9599 15.4272 19.737 15.5948 19.4971 15.7326C19.0418 15.9941 18.3827 16.2399 17.5247 16.2399C16.8417 16.249 16.1663 16.0753 15.5522 15.7326C15.3128 15.5957 15.0883 15.4269 14.8834 15.2299L14.8395 15.1852L14.8239 15.1684L14.818 15.1617L14.8141 15.1572V15.1561C14.7092 15.036 14.6386 14.882 14.6118 14.7148C14.5849 14.5476 14.6032 14.375 14.664 14.2199L16.7232 8.97778H16.5653C16.2679 8.97778 15.9763 8.88952 15.7189 8.7197L14.4612 7.89741C14.4244 7.87328 14.3827 7.86057 14.3403 7.86054H13.3809V18.4743H15.8184C16.0123 18.4743 16.1983 18.5626 16.3355 18.7198C16.4726 18.8769 16.5497 19.09 16.5497 19.3123C16.5497 19.5345 16.4726 19.7476 16.3355 19.9048C16.1983 20.0619 16.0123 20.1502 15.8184 20.1502H9.48082C9.28688 20.1502 9.10088 20.0619 8.96374 19.9048C8.82661 19.7476 8.74956 19.5345 8.74956 19.3123C8.74956 19.09 8.82661 18.8769 8.96374 18.7198C9.10088 18.5626 9.28688 18.4743 9.48082 18.4743H11.9184V7.86054H10.9589C10.9165 7.86057 10.8749 7.87328 10.838 7.89741L9.58125 8.72082C9.32287 8.8884 9.03134 8.97778 8.73396 8.97778H8.57601L10.6352 14.2199C10.6961 14.375 10.7143 14.5476 10.6875 14.7148C10.6606 14.882 10.5901 15.036 10.4851 15.1561L9.96833 14.564L10.4841 15.1572L10.4831 15.1595L10.4812 15.1617L10.4753 15.1684L10.4597 15.1852L10.4159 15.2299C10.2098 15.4272 9.98685 15.5948 9.747 15.7326C9.29167 15.9941 8.63256 16.2399 7.77455 16.2399C7.09158 16.249 6.41617 16.0753 5.8021 15.7326C5.56272 15.5957 5.33823 15.4269 5.13325 15.2299L5.08937 15.1852L5.07377 15.1684L5.06792 15.1617L5.06402 15.1572V15.1561C4.95905 15.036 4.88847 14.882 4.86165 14.7148C4.83483 14.5476 4.85305 14.375 4.91387 14.2199L6.97309 8.97778H6.55579C6.36185 8.97778 6.17585 8.8895 6.03871 8.73236C5.90157 8.57521 5.82453 8.36208 5.82453 8.13985C5.82453 7.91762 5.90157 7.70449 6.03871 7.54734C6.17585 7.3902 6.36185 7.30192 6.55579 7.30192H8.73396C8.77671 7.30209 8.81874 7.28937 8.85584 7.26505L10.1117 6.44164C10.37 6.27406 10.6616 6.18468 10.9589 6.18468H11.9184V4.78813C11.9184 4.56589 11.9954 4.35276 12.1325 4.19562C12.2697 4.03848 12.4557 3.9502 12.6496 3.9502C12.8436 3.9502 13.0295 4.03848 13.1667 4.19562C13.3038 4.35276 13.3809 4.56589 13.3809 4.78813ZM16.2523 14.259C16.5302 14.4098 16.9523 14.564 17.5247 14.564C18.097 14.564 18.5192 14.4098 18.7971 14.259L17.5247 11.019L16.2523 14.259ZM6.50216 14.259C6.78004 14.4098 7.20222 14.564 7.77455 14.564C8.34688 14.564 8.76906 14.4098 9.04694 14.259L7.77455 11.019L6.50216 14.259Z" fill="white"/>
</g>
<defs>
<clipPath id="clip0_434_5624">
<rect width="18" height="18" fill="white" transform="translate(3.5 3.5)"/>
</clipPath>
</defs>
</svg>
