<svg width="412" height="67" viewBox="0 0 412 67" fill="none" xmlns="http://www.w3.org/2000/svg">
<path d="M34.4688 28.8966V31.2241H36.0694C36.5634 31.2241 37.0493 31.3731 37.4783 31.6543L39.5746 33.0248C39.6374 33.0657 39.7046 33.0862 39.7761 33.0862H43.4064C43.7296 33.0862 44.0396 33.2333 44.2682 33.4952C44.4967 33.7572 44.6251 34.1124 44.6251 34.4828C44.6251 34.8531 44.4967 35.2084 44.2682 35.4703C44.0396 35.7322 43.7296 35.8793 43.4064 35.8793H42.7125L46.1429 44.6161C46.2443 44.8746 46.2746 45.1623 46.2299 45.441C46.1852 45.7197 46.0676 45.9763 45.8926 46.1766L45.0314 45.1897L45.891 46.1784L45.8894 46.1821L45.8861 46.1859L45.8764 46.197L45.8666 46.2063L45.8504 46.225L45.7773 46.2994C45.4338 46.6284 45.0623 46.9077 44.6625 47.1374C43.9036 47.5731 42.8051 47.9828 41.3751 47.9828C40.2368 47.998 39.1111 47.7085 38.0877 47.1374C37.6887 46.9091 37.3146 46.6279 36.9729 46.2994L36.8998 46.225L36.8738 46.197L36.864 46.1859L36.8575 46.1784V46.1766C36.6826 45.9763 36.565 45.7197 36.5203 45.441C36.4756 45.1623 36.5059 44.8746 36.6073 44.6161L40.0393 35.8793H39.7761C39.2804 35.8793 38.7946 35.7322 38.3656 35.4492L36.2693 34.0787C36.2079 34.0385 36.1385 34.0173 36.0678 34.0172H34.4688V51.7069H38.5313C38.8545 51.7069 39.1645 51.854 39.3931 52.1159C39.6217 52.3778 39.7501 52.7331 39.7501 53.1034C39.7501 53.4738 39.6217 53.8291 39.3931 54.091C39.1645 54.3529 38.8545 54.5 38.5313 54.5H27.9687C27.6455 54.5 27.3355 54.3529 27.1069 54.091C26.8783 53.8291 26.7499 53.4738 26.7499 53.1034C26.7499 52.7331 26.8783 52.3778 27.1069 52.1159C27.3355 51.854 27.6455 51.7069 27.9687 51.7069H32.0312V34.0172H30.4322C30.3615 34.0173 30.2921 34.0385 30.2307 34.0787L28.1361 35.451C27.7054 35.7303 27.2196 35.8793 26.7239 35.8793H26.4607L29.8927 44.6161C29.9941 44.8746 30.0244 45.1623 29.9797 45.441C29.935 45.7197 29.8174 45.9763 29.6425 46.1766L28.7812 45.1897L29.6408 46.1784L29.6392 46.1821L29.636 46.1859L29.6262 46.197L29.6002 46.225L29.5271 46.2994C29.1837 46.6284 28.8121 46.9077 28.4123 47.1374C27.6534 47.5731 26.5549 47.9828 25.1249 47.9828C23.9866 47.998 22.8609 47.7085 21.8375 47.1374C21.4385 46.9091 21.0644 46.6279 20.7227 46.2994L20.6496 46.225L20.6236 46.197L20.6139 46.1859L20.6074 46.1784V46.1766C20.4324 45.9763 20.3148 45.7197 20.2701 45.441C20.2254 45.1623 20.2557 44.8746 20.3571 44.6161L23.7891 35.8793H23.0936C22.7704 35.8793 22.4604 35.7322 22.2318 35.4703C22.0033 35.2084 21.8749 34.8531 21.8749 34.4828C21.8749 34.1124 22.0033 33.7572 22.2318 33.4952C22.4604 33.2333 22.7704 33.0862 23.0936 33.0862H26.7239C26.7952 33.0865 26.8652 33.0653 26.9271 33.0248L29.0201 31.6524C29.4507 31.3731 29.9366 31.2241 30.4322 31.2241H32.0312V28.8966C32.0312 28.5262 32.1596 28.1709 32.3882 27.909C32.6168 27.6471 32.9268 27.5 33.25 27.5C33.5732 27.5 33.8832 27.6471 34.1118 27.909C34.3404 28.1709 34.4688 28.5262 34.4688 28.8966ZM39.2544 44.6813C39.7176 44.9327 40.4212 45.1897 41.3751 45.1897C42.329 45.1897 43.0326 44.9327 43.4957 44.6813L41.3751 39.2813L39.2544 44.6813ZM23.0043 44.6813C23.4674 44.9327 24.171 45.1897 25.1249 45.1897C26.0788 45.1897 26.7824 44.9327 27.2456 44.6813L25.1249 39.2813L23.0043 44.6813Z" fill="#23209F"/>
<path d="M64.638 48.5V35.162H67.302V46.268H72.72V48.5H64.638ZM77.2943 48.752C76.7063 48.752 76.1843 48.626 75.7283 48.374C75.2843 48.11 74.9363 47.75 74.6843 47.294C74.4443 46.838 74.3243 46.322 74.3243 45.746C74.3243 44.678 74.7863 43.85 75.7103 43.262C76.6343 42.662 78.1043 42.254 80.1203 42.038C80.1083 41.702 80.0483 41.408 79.9403 41.156C79.8323 40.892 79.6523 40.682 79.4003 40.526C79.1603 40.37 78.8303 40.292 78.4103 40.292C77.9423 40.292 77.4803 40.382 77.0243 40.562C76.5683 40.742 76.1063 40.976 75.6383 41.264L74.7023 39.5C75.0983 39.248 75.5183 39.026 75.9623 38.834C76.4063 38.642 76.8743 38.486 77.3663 38.366C77.8583 38.234 78.3683 38.168 78.8963 38.168C79.7483 38.168 80.4623 38.336 81.0383 38.672C81.6143 39.008 82.0463 39.506 82.3343 40.166C82.6223 40.826 82.7663 41.642 82.7663 42.614V48.5H80.6063L80.4263 47.42H80.3363C79.9043 47.804 79.4363 48.122 78.9323 48.374C78.4283 48.626 77.8823 48.752 77.2943 48.752ZM78.1763 46.682C78.5483 46.682 78.8843 46.598 79.1843 46.43C79.4963 46.25 79.8083 46.004 80.1203 45.692V43.676C79.3043 43.772 78.6563 43.91 78.1763 44.09C77.6963 44.27 77.3543 44.486 77.1503 44.738C76.9463 44.978 76.8443 45.248 76.8443 45.548C76.8443 45.944 76.9643 46.232 77.2043 46.412C77.4563 46.592 77.7803 46.682 78.1763 46.682ZM87.137 48.5L84.545 38.42H87.173L88.289 43.388C88.373 43.892 88.451 44.384 88.523 44.864C88.595 45.344 88.673 45.836 88.757 46.34H88.847C88.955 45.836 89.057 45.344 89.153 44.864C89.249 44.372 89.357 43.88 89.477 43.388L90.701 38.42H93.041L94.301 43.388C94.421 43.892 94.529 44.384 94.625 44.864C94.721 45.344 94.829 45.836 94.949 46.34H95.021C95.117 45.836 95.201 45.344 95.273 44.864C95.357 44.384 95.447 43.892 95.543 43.388L96.605 38.42H99.071L96.587 48.5H93.473L92.411 44.108C92.303 43.628 92.201 43.154 92.105 42.686C92.021 42.206 91.925 41.696 91.817 41.156H91.727C91.643 41.696 91.559 42.206 91.475 42.686C91.391 43.166 91.295 43.64 91.187 44.108L90.161 48.5H87.137ZM101.218 48.5V35.162H103.882V40.436H108.922V35.162H111.568V48.5H108.922V42.74H103.882V48.5H101.218ZM119.017 48.752C118.081 48.752 117.235 48.542 116.479 48.122C115.723 47.702 115.117 47.096 114.661 46.304C114.217 45.512 113.995 44.564 113.995 43.46C113.995 42.644 114.121 41.912 114.373 41.264C114.637 40.616 114.991 40.064 115.435 39.608C115.891 39.14 116.395 38.786 116.947 38.546C117.511 38.294 118.093 38.168 118.693 38.168C119.617 38.168 120.391 38.378 121.015 38.798C121.639 39.206 122.107 39.776 122.419 40.508C122.743 41.228 122.905 42.056 122.905 42.992C122.905 43.232 122.893 43.466 122.869 43.694C122.845 43.91 122.815 44.084 122.779 44.216H116.569C116.641 44.756 116.803 45.212 117.055 45.584C117.307 45.956 117.631 46.238 118.027 46.43C118.423 46.61 118.873 46.7 119.377 46.7C119.785 46.7 120.169 46.646 120.529 46.538C120.889 46.418 121.255 46.244 121.627 46.016L122.527 47.636C122.035 47.972 121.483 48.242 120.871 48.446C120.259 48.65 119.641 48.752 119.017 48.752ZM116.515 42.434H120.637C120.637 41.762 120.481 41.228 120.169 40.832C119.869 40.424 119.389 40.22 118.729 40.22C118.381 40.22 118.051 40.304 117.739 40.472C117.427 40.628 117.163 40.874 116.947 41.21C116.731 41.534 116.587 41.942 116.515 42.434ZM127.586 48.752C126.962 48.752 126.47 48.626 126.11 48.374C125.75 48.11 125.486 47.75 125.318 47.294C125.162 46.826 125.084 46.286 125.084 45.674V34.136H127.73V45.782C127.73 46.082 127.784 46.292 127.892 46.412C128.012 46.532 128.132 46.592 128.252 46.592C128.312 46.592 128.366 46.592 128.414 46.592C128.462 46.58 128.528 46.568 128.612 46.556L128.936 48.518C128.78 48.578 128.588 48.632 128.36 48.68C128.144 48.728 127.886 48.752 127.586 48.752ZM130.762 52.37V38.42H132.922L133.12 39.464H133.174C133.594 39.104 134.056 38.798 134.56 38.546C135.076 38.294 135.604 38.168 136.144 38.168C136.972 38.168 137.68 38.384 138.268 38.816C138.856 39.236 139.306 39.83 139.618 40.598C139.942 41.354 140.104 42.254 140.104 43.298C140.104 44.45 139.9 45.434 139.492 46.25C139.084 47.066 138.55 47.69 137.89 48.122C137.242 48.542 136.552 48.752 135.82 48.752C135.388 48.752 134.956 48.656 134.524 48.464C134.104 48.272 133.702 48.002 133.318 47.654L133.408 49.292V52.37H130.762ZM135.244 46.574C135.64 46.574 136 46.46 136.324 46.232C136.648 45.992 136.906 45.632 137.098 45.152C137.29 44.672 137.386 44.066 137.386 43.334C137.386 42.698 137.314 42.158 137.17 41.714C137.026 41.258 136.81 40.916 136.522 40.688C136.234 40.46 135.856 40.346 135.388 40.346C135.052 40.346 134.722 40.43 134.398 40.598C134.086 40.766 133.756 41.024 133.408 41.372V45.818C133.732 46.106 134.05 46.304 134.362 46.412C134.674 46.52 134.968 46.574 135.244 46.574ZM146.738 48.752C145.802 48.752 144.956 48.542 144.2 48.122C143.444 47.702 142.838 47.096 142.382 46.304C141.938 45.512 141.716 44.564 141.716 43.46C141.716 42.644 141.842 41.912 142.094 41.264C142.358 40.616 142.712 40.064 143.156 39.608C143.612 39.14 144.116 38.786 144.668 38.546C145.232 38.294 145.814 38.168 146.414 38.168C147.338 38.168 148.112 38.378 148.736 38.798C149.36 39.206 149.828 39.776 150.14 40.508C150.464 41.228 150.626 42.056 150.626 42.992C150.626 43.232 150.614 43.466 150.59 43.694C150.566 43.91 150.536 44.084 150.5 44.216H144.29C144.362 44.756 144.524 45.212 144.776 45.584C145.028 45.956 145.352 46.238 145.748 46.43C146.144 46.61 146.594 46.7 147.098 46.7C147.506 46.7 147.89 46.646 148.25 46.538C148.61 46.418 148.976 46.244 149.348 46.016L150.248 47.636C149.756 47.972 149.204 48.242 148.592 48.446C147.98 48.65 147.362 48.752 146.738 48.752ZM144.236 42.434H148.358C148.358 41.762 148.202 41.228 147.89 40.832C147.59 40.424 147.11 40.22 146.45 40.22C146.102 40.22 145.772 40.304 145.46 40.472C145.148 40.628 144.884 40.874 144.668 41.21C144.452 41.534 144.308 41.942 144.236 42.434ZM152.805 48.5V38.42H154.965L155.163 40.202H155.217C155.589 39.542 156.027 39.038 156.531 38.69C157.035 38.342 157.551 38.168 158.079 38.168C158.367 38.168 158.595 38.192 158.763 38.24C158.943 38.276 159.105 38.324 159.249 38.384L158.817 40.67C158.625 40.622 158.451 40.586 158.295 40.562C158.151 40.526 157.965 40.508 157.737 40.508C157.353 40.508 156.945 40.658 156.513 40.958C156.093 41.258 155.739 41.768 155.451 42.488V48.5H152.805Z" fill="#23209F"/>
</svg>
