<svg width="30" height="30" viewBox="0 0 30 30" fill="none" xmlns="http://www.w3.org/2000/svg">
<path d="M9.65 20.5699L11.8512 19.9349L25.105 6.52243C25.2095 6.4153 25.2677 6.27135 25.267 6.12166C25.2663 5.97198 25.2068 5.82858 25.1012 5.72243L24.3075 4.91993C24.2562 4.86723 24.1949 4.82527 24.1272 4.7965C24.0596 4.76774 23.9868 4.75274 23.9133 4.75239C23.8397 4.75204 23.7669 4.76635 23.6989 4.79447C23.631 4.82259 23.5693 4.86397 23.5175 4.91618L10.2987 18.2937L9.65 20.5699ZM25.8787 3.32993L26.6725 4.13368C27.7675 5.24243 27.7775 7.03118 26.6925 8.12868L13.035 21.9512L8.33 23.3062C8.18776 23.3462 8.03904 23.3577 7.89233 23.3402C7.74562 23.3227 7.60379 23.2765 7.47495 23.2042C7.34611 23.1319 7.23277 23.0349 7.14141 22.9188C7.05005 22.8027 6.98246 22.6697 6.9425 22.5274C6.8812 22.3212 6.88033 22.1017 6.94 21.8949L8.30875 17.0949L21.93 3.30868C22.189 3.04788 22.4974 2.84126 22.8371 2.70087C23.1768 2.56048 23.541 2.48914 23.9086 2.491C24.2761 2.49286 24.6396 2.56789 24.9779 2.71171C25.3162 2.85553 25.6224 3.06652 25.8787 3.32993ZM11.48 4.77118C12.1 4.77118 12.6025 5.27993 12.6025 5.90743C12.6035 6.05577 12.5752 6.20284 12.5193 6.34025C12.4634 6.47765 12.381 6.60269 12.2768 6.70822C12.1725 6.81375 12.0485 6.89769 11.9118 6.95525C11.7751 7.01281 11.6283 7.04286 11.48 7.04368H6.99C5.75 7.04368 4.745 8.06118 4.745 9.31493V22.9474C4.745 24.2024 5.75 25.2199 6.99 25.2199H20.46C21.7 25.2199 22.7063 24.2024 22.7063 22.9474V18.4037C22.7063 17.7762 23.2087 17.2674 23.8288 17.2674C24.4487 17.2674 24.9513 17.7762 24.9513 18.4049V22.9474C24.9513 25.4574 22.94 27.4924 20.46 27.4924H6.99C4.51 27.4924 2.5 25.4574 2.5 22.9474V9.31493C2.5 6.80618 4.51 4.77118 6.99 4.77118H11.48Z" fill="#616161"/>
</svg>
