<svg width="18" height="18" viewBox="0 0 18 18" fill="none" xmlns="http://www.w3.org/2000/svg">
<path d="M9.88087 1.28788V2.68443H10.8413C11.1377 2.68443 11.4292 2.77381 11.6866 2.94252L12.9444 3.76481C12.9821 3.78939 13.0224 3.80168 13.0653 3.80168H15.2434C15.4374 3.80168 15.6234 3.88996 15.7605 4.0471C15.8976 4.20424 15.9747 4.41737 15.9747 4.63961C15.9747 4.86184 15.8976 5.07497 15.7605 5.23211C15.6234 5.38926 15.4374 5.47754 15.2434 5.47754H14.8271L16.8854 10.7196C16.9462 10.8747 16.9644 11.0473 16.9376 11.2146C16.9107 11.3818 16.8402 11.5357 16.7352 11.6559L16.2184 11.0637L16.7342 11.657L16.7332 11.6592L16.7313 11.6615L16.7254 11.6682L16.7196 11.6738L16.7098 11.6849L16.666 11.7296C16.4599 11.927 16.237 12.0946 15.9971 12.2324C15.5418 12.4938 14.8827 12.7396 14.0247 12.7396C13.3417 12.7488 12.6663 12.5751 12.0522 12.2324C11.8128 12.0954 11.5883 11.9267 11.3834 11.7296L11.3395 11.6849L11.3239 11.6682L11.318 11.6615L11.3141 11.657V11.6559C11.2092 11.5357 11.1386 11.3818 11.1118 11.2146C11.0849 11.0473 11.1032 10.8747 11.164 10.7196L13.2232 5.47754H13.0653C12.7679 5.47754 12.4763 5.38928 12.2189 5.21945L10.9612 4.39717C10.9244 4.37303 10.8827 4.36032 10.8403 4.3603H9.88087V14.9741H12.3184C12.5123 14.9741 12.6983 15.0624 12.8355 15.2195C12.9726 15.3767 13.0497 15.5898 13.0497 15.812C13.0497 16.0343 12.9726 16.2474 12.8355 16.4045C12.6983 16.5617 12.5123 16.65 12.3184 16.65H5.98082C5.78688 16.65 5.60088 16.5617 5.46374 16.4045C5.32661 16.2474 5.24956 16.0343 5.24956 15.812C5.24956 15.5898 5.32661 15.3767 5.46374 15.2195C5.60088 15.0624 5.78688 14.9741 5.98082 14.9741H8.41835V4.3603H7.45894C7.41653 4.36032 7.37485 4.37303 7.33804 4.39717L6.08125 5.22057C5.82287 5.38816 5.53134 5.47754 5.23396 5.47754H5.07601L7.13524 10.7196C7.19606 10.8747 7.21427 11.0473 7.18745 11.2146C7.16063 11.3818 7.09005 11.5357 6.98508 11.6559L6.46833 11.0637L6.98411 11.657L6.98313 11.6592L6.98118 11.6615L6.97533 11.6682L6.95973 11.6849L6.91586 11.7296C6.70981 11.927 6.48685 12.0946 6.247 12.2324C5.79167 12.4938 5.13256 12.7396 4.27455 12.7396C3.59158 12.7488 2.91617 12.5751 2.3021 12.2324C2.06272 12.0954 1.83823 11.9267 1.63325 11.7296L1.58937 11.6849L1.57377 11.6682L1.56792 11.6615L1.56402 11.657V11.6559C1.45905 11.5357 1.38847 11.3818 1.36165 11.2146C1.33483 11.0473 1.35305 10.8747 1.41387 10.7196L3.47309 5.47754H3.05579C2.86185 5.47754 2.67585 5.38926 2.53871 5.23211C2.40157 5.07497 2.32453 4.86184 2.32453 4.63961C2.32453 4.41737 2.40157 4.20424 2.53871 4.0471C2.67585 3.88996 2.86185 3.80168 3.05579 3.80168H5.23396C5.27671 3.80184 5.31874 3.78913 5.35584 3.76481L6.61165 2.9414C6.87003 2.77381 7.16156 2.68443 7.45894 2.68443H8.41835V1.28788C8.41835 1.06565 8.49539 0.852518 8.63253 0.695375C8.76967 0.538233 8.95567 0.449951 9.14961 0.449951C9.34355 0.449951 9.52955 0.538233 9.66669 0.695375C9.80382 0.852518 9.88087 1.06565 9.88087 1.28788ZM12.7523 10.7587C13.0302 10.9096 13.4523 11.0637 14.0247 11.0637C14.597 11.0637 15.0192 10.9096 15.2971 10.7587L14.0247 7.51874L12.7523 10.7587ZM3.00216 10.7587C3.28004 10.9096 3.70222 11.0637 4.27455 11.0637C4.84688 11.0637 5.26906 10.9096 5.54694 10.7587L4.27455 7.51874L3.00216 10.7587Z" fill="white"/>
</svg>
