<svg width="55" height="54" viewBox="0 0 55 54" fill="none" xmlns="http://www.w3.org/2000/svg">
<path d="M16.9999 23.75L15.8374 23.2875C15.7543 23.4965 15.7292 23.724 15.7646 23.9461C15.8001 24.1682 15.8948 24.3766 16.0387 24.5494C16.1827 24.7222 16.3706 24.8529 16.5827 24.9278C16.7948 25.0027 17.0231 25.019 17.2437 24.975L16.9999 23.75ZM22.8824 22.58L23.4749 21.4788L23.0787 21.2663L22.6387 21.3538L22.8824 22.58ZM19.0299 18.6462L20.1924 19.1087L20.3962 18.5913L20.1512 18.0925L19.0299 18.6462ZM35.7499 15C35.7499 19.0575 32.1837 22.5 27.5874 22.5V25C33.3887 25 38.2499 20.6075 38.2499 15H35.7499ZM19.4262 15C19.4262 10.9425 22.9937 7.5 27.5887 7.5V5C21.7874 5 16.9249 9.3925 16.9249 15H19.4262ZM27.5887 7.5C32.1837 7.5 35.7499 10.9425 35.7499 15H38.2499C38.2499 9.3925 33.3899 5 27.5887 5V7.5ZM27.5874 22.5C26.0812 22.5 24.6787 22.125 23.4749 21.4788L22.2899 23.68C23.9191 24.5534 25.7389 25.007 27.5874 25V22.5ZM17.2437 24.975L23.1262 23.805L22.6387 21.3538L16.7562 22.5237L17.2437 24.9763V24.975ZM20.1512 18.0925C19.6753 17.1309 19.428 16.0729 19.4262 15H16.9249C16.9249 16.5 17.2774 17.9225 17.9074 19.2L20.1512 18.0925ZM17.8687 18.1838L15.8374 23.2887L18.1599 24.2113L20.1899 19.1075L17.8674 18.1838H17.8687Z" fill="#999999"/>
<path d="M23.25 16.25C23.9404 16.25 24.5 15.6904 24.5 15C24.5 14.3096 23.9404 13.75 23.25 13.75C22.5596 13.75 22 14.3096 22 15C22 15.6904 22.5596 16.25 23.25 16.25Z" fill="#999999"/>
<path d="M27.625 16.25C28.3154 16.25 28.875 15.6904 28.875 15C28.875 14.3096 28.3154 13.75 27.625 13.75C26.9346 13.75 26.375 14.3096 26.375 15C26.375 15.6904 26.9346 16.25 27.625 16.25Z" fill="#999999"/>
<path d="M32 16.25C32.6904 16.25 33.25 15.6904 33.25 15C33.25 14.3096 32.6904 13.75 32 13.75C31.3096 13.75 30.75 14.3096 30.75 15C30.75 15.6904 31.3096 16.25 32 16.25Z" fill="#999999"/>
<path d="M8.048 52L11.024 43.204H12.26L15.248 52H14.072L12.536 47.08C12.376 46.576 12.224 46.084 12.08 45.604C11.936 45.116 11.792 44.616 11.648 44.104H11.6C11.464 44.616 11.32 45.116 11.168 45.604C11.024 46.084 10.876 46.576 10.724 47.08L9.164 52H8.048ZM9.596 49.312V48.436H13.652V49.312H9.596ZM16.5128 52V43.204H17.6168V52H16.5128ZM24.32 44.848H25.088V45.412C25.088 45.948 25.032 46.48 24.92 47.008C24.808 47.528 24.644 48.024 24.428 48.496C24.22 48.968 23.96 49.392 23.648 49.768C23.344 50.144 22.992 50.448 22.592 50.68L22.004 49.924C22.364 49.708 22.688 49.436 22.976 49.108C23.264 48.78 23.508 48.416 23.708 48.016C23.908 47.608 24.06 47.184 24.164 46.744C24.268 46.296 24.32 45.852 24.32 45.412V44.848ZM24.5 44.848H25.268V45.412C25.268 45.836 25.32 46.264 25.424 46.696C25.528 47.12 25.68 47.524 25.88 47.908C26.088 48.284 26.332 48.628 26.612 48.94C26.9 49.244 27.228 49.496 27.596 49.696L27.02 50.44C26.492 50.144 26.04 49.736 25.664 49.216C25.288 48.696 25 48.108 24.8 47.452C24.6 46.788 24.5 46.108 24.5 45.412V44.848ZM22.268 44.092H27.308V44.92H22.268V44.092ZM24.32 42.472H25.268V44.704H24.32V42.472ZM30.392 42.076H31.352V52.936H30.392V42.076ZM28.676 46.456H30.764V47.296H28.676V46.456ZM28.028 42.304H28.976V52.384H28.028V42.304ZM33.7631 47.224H34.6391C35.4231 47.224 36.1031 47.22 36.6791 47.212C37.2631 47.196 37.8031 47.164 38.2991 47.116C38.7951 47.068 39.2951 47.004 39.7991 46.924L39.9071 47.728C39.3791 47.808 38.8631 47.872 38.3591 47.92C37.8551 47.968 37.3071 48 36.7151 48.016C36.1231 48.032 35.4311 48.04 34.6391 48.04H33.7631V47.224ZM33.7631 42.88H38.9231V43.684H34.7591V47.632H33.7631V42.88ZM34.4351 45.028H38.6231V45.82H34.4351V45.028ZM41.0351 42.088H42.0311V48.796H41.0351V42.088ZM38.4431 48.964C39.2031 48.964 39.8511 49.044 40.3871 49.204C40.9311 49.356 41.3511 49.576 41.6471 49.864C41.9431 50.152 42.0911 50.508 42.0911 50.932C42.0911 51.556 41.7671 52.04 41.1191 52.384C40.4711 52.736 39.5791 52.912 38.4431 52.912C37.3151 52.912 36.4271 52.736 35.7791 52.384C35.1311 52.04 34.8071 51.556 34.8071 50.932C34.8071 50.308 35.1311 49.824 35.7791 49.48C36.4271 49.136 37.3151 48.964 38.4431 48.964ZM38.4431 49.744C37.8991 49.744 37.4271 49.792 37.0271 49.888C36.6271 49.984 36.3191 50.12 36.1031 50.296C35.8951 50.472 35.7911 50.684 35.7911 50.932C35.7911 51.18 35.8951 51.396 36.1031 51.58C36.3191 51.756 36.6271 51.892 37.0271 51.988C37.4271 52.084 37.8991 52.132 38.4431 52.132C38.9951 52.132 39.4671 52.084 39.8591 51.988C40.2591 51.892 40.5631 51.756 40.7711 51.58C40.9871 51.396 41.0951 51.18 41.0951 50.932C41.0951 50.684 40.9871 50.472 40.7711 50.296C40.5631 50.12 40.2591 49.984 39.8591 49.888C39.4671 49.792 38.9951 49.744 38.4431 49.744Z" fill="#999999"/>
</svg>
