<svg width="54" height="54" viewBox="0 0 54 54" fill="none" xmlns="http://www.w3.org/2000/svg">
<path d="M19.5 23.75H23.25V17.5C23.25 17.1458 23.37 16.8492 23.61 16.61C23.85 16.3708 24.1467 16.2508 24.5 16.25H29.5C29.8542 16.25 30.1513 16.37 30.3913 16.61C30.6313 16.85 30.7508 17.1467 30.75 17.5V23.75H34.5V12.5L27 6.875L19.5 12.5V23.75ZM17 23.75V12.5C17 12.1042 17.0887 11.7292 17.2662 11.375C17.4437 11.0208 17.6883 10.7292 18 10.5L25.5 4.875C25.9375 4.54167 26.4375 4.375 27 4.375C27.5625 4.375 28.0625 4.54167 28.5 4.875L36 10.5C36.3125 10.7292 36.5575 11.0208 36.735 11.375C36.9125 11.7292 37.0008 12.1042 37 12.5V23.75C37 24.4375 36.755 25.0263 36.265 25.5163C35.775 26.0063 35.1867 26.2508 34.5 26.25H29.5C29.1458 26.25 28.8492 26.13 28.61 25.89C28.3708 25.65 28.2508 25.3533 28.25 25V18.75H25.75V25C25.75 25.3542 25.63 25.6512 25.39 25.8912C25.15 26.1312 24.8533 26.2508 24.5 26.25H19.5C18.8125 26.25 18.2242 26.0054 17.735 25.5163C17.2458 25.0271 17.0008 24.4383 17 23.75Z" fill="#23209F"/>
<path d="M23.2805 49.696H30.6845V52.792H23.2805V49.696ZM29.7125 50.452H24.2525V52.024H29.7125V50.452ZM22.5965 42.976H31.3205V43.756H22.5965V42.976ZM26.9765 44.188C28.1045 44.188 28.9685 44.32 29.5685 44.584C30.1765 44.84 30.4805 45.22 30.4805 45.724C30.4805 46.228 30.1765 46.612 29.5685 46.876C28.9685 47.132 28.1045 47.26 26.9765 47.26C25.8645 47.26 25.0005 47.132 24.3845 46.876C23.7765 46.612 23.4725 46.228 23.4725 45.724C23.4725 45.22 23.7765 44.84 24.3845 44.584C25.0005 44.32 25.8645 44.188 26.9765 44.188ZM26.9765 44.884C26.2005 44.884 25.5965 44.956 25.1645 45.1C24.7405 45.244 24.5285 45.452 24.5285 45.724C24.5285 45.996 24.7405 46.204 25.1645 46.348C25.5965 46.492 26.2005 46.564 26.9765 46.564C27.7605 46.564 28.3645 46.492 28.7885 46.348C29.2125 46.204 29.4245 45.996 29.4245 45.724C29.4245 45.452 29.2125 45.244 28.7885 45.1C28.3645 44.956 27.7605 44.884 26.9765 44.884ZM26.4845 41.92H27.4805V43.48H26.4845V41.92ZM22.0805 48.076H31.8845V48.868H22.0805V48.076ZM26.4845 47.008H27.4805V48.52H26.4845V47.008Z" fill="#23209F"/>
</svg>
