<svg width="54" height="55" viewBox="0 0 54 55" fill="none" xmlns="http://www.w3.org/2000/svg">
<path d="M27 17.8438C30.3655 17.8438 33.0938 15.1155 33.0938 11.75C33.0938 8.38451 30.3655 5.65625 27 5.65625C23.6345 5.65625 20.9062 8.38451 20.9062 11.75C20.9062 15.1155 23.6345 17.8438 27 17.8438Z" stroke="#999999" stroke-width="2.8125" stroke-linecap="round" stroke-linejoin="round"/>
<path d="M17.1562 27.2188C17.1562 22.5312 20.9062 17.8438 27 17.8438C33.0938 17.8438 36.8438 22.5312 36.8438 27.2188" stroke="#999999" stroke-width="2.8125" stroke-linecap="round" stroke-linejoin="round"/>
<path d="M0.434344 43.668H5.41434V50.676H0.434344V43.668ZM4.43034 44.46H1.40634V49.872H4.43034V44.46ZM7.34634 42.576H8.34234V53.436H7.34634V42.576ZM8.11434 46.908H10.1183V47.748H8.11434V46.908ZM18.9254 42.576H19.9214V53.448H18.9254V42.576ZM14.1974 43.416C14.7334 43.416 15.2054 43.572 15.6134 43.884C16.0294 44.188 16.3534 44.624 16.5854 45.192C16.8254 45.76 16.9454 46.428 16.9454 47.196C16.9454 47.964 16.8254 48.632 16.5854 49.2C16.3534 49.768 16.0294 50.208 15.6134 50.52C15.2054 50.832 14.7334 50.988 14.1974 50.988C13.6614 50.988 13.1854 50.832 12.7694 50.52C12.3534 50.208 12.0254 49.768 11.7854 49.2C11.5534 48.632 11.4374 47.964 11.4374 47.196C11.4374 46.428 11.5534 45.76 11.7854 45.192C12.0254 44.624 12.3534 44.188 12.7694 43.884C13.1854 43.572 13.6614 43.416 14.1974 43.416ZM14.1974 44.304C13.8374 44.304 13.5214 44.424 13.2494 44.664C12.9854 44.896 12.7774 45.232 12.6254 45.672C12.4734 46.104 12.3974 46.612 12.3974 47.196C12.3974 47.78 12.4734 48.292 12.6254 48.732C12.7774 49.164 12.9854 49.5 13.2494 49.74C13.5214 49.98 13.8374 50.1 14.1974 50.1C14.5494 50.1 14.8574 49.98 15.1214 49.74C15.3934 49.5 15.6054 49.164 15.7574 48.732C15.9094 48.292 15.9854 47.78 15.9854 47.196C15.9854 46.612 15.9094 46.104 15.7574 45.672C15.6054 45.232 15.3934 44.896 15.1214 44.664C14.8574 44.424 14.5494 44.304 14.1974 44.304ZM30.3845 42.576H31.3445V53.436H30.3845V42.576ZM26.8205 46.704H28.6085V47.592H26.8205V46.704ZM28.2845 42.84H29.2325V52.86H28.2845V42.84ZM22.1885 43.956H27.1325V44.772H22.1885V43.956ZM22.0805 50.76L21.9605 49.92C22.3205 49.92 22.7245 49.92 23.1725 49.92C23.6205 49.912 24.0885 49.9 24.5765 49.884C25.0645 49.86 25.5485 49.832 26.0285 49.8C26.5085 49.76 26.9565 49.712 27.3725 49.656L27.4445 50.4C26.8765 50.504 26.2645 50.584 25.6085 50.64C24.9605 50.688 24.3285 50.72 23.7125 50.736C23.0965 50.752 22.5525 50.76 22.0805 50.76ZM23.0765 44.484H23.9885V50.16H23.0765V44.484ZM25.3205 44.484H26.2445V50.16H25.3205V44.484ZM41.0035 42.576H41.9995V53.448H41.0035V42.576ZM36.2755 43.416C36.8115 43.416 37.2835 43.572 37.6915 43.884C38.1075 44.188 38.4315 44.624 38.6635 45.192C38.9035 45.76 39.0235 46.428 39.0235 47.196C39.0235 47.964 38.9035 48.632 38.6635 49.2C38.4315 49.768 38.1075 50.208 37.6915 50.52C37.2835 50.832 36.8115 50.988 36.2755 50.988C35.7395 50.988 35.2635 50.832 34.8475 50.52C34.4315 50.208 34.1035 49.768 33.8635 49.2C33.6315 48.632 33.5155 47.964 33.5155 47.196C33.5155 46.428 33.6315 45.76 33.8635 45.192C34.1035 44.624 34.4315 44.188 34.8475 43.884C35.2635 43.572 35.7395 43.416 36.2755 43.416ZM36.2755 44.304C35.9155 44.304 35.5995 44.424 35.3275 44.664C35.0635 44.896 34.8555 45.232 34.7035 45.672C34.5515 46.104 34.4755 46.612 34.4755 47.196C34.4755 47.78 34.5515 48.292 34.7035 48.732C34.8555 49.164 35.0635 49.5 35.3275 49.74C35.5995 49.98 35.9155 50.1 36.2755 50.1C36.6275 50.1 36.9355 49.98 37.1995 49.74C37.4715 49.5 37.6835 49.164 37.8355 48.732C37.9875 48.292 38.0635 47.78 38.0635 47.196C38.0635 46.612 37.9875 46.104 37.8355 45.672C37.6835 45.232 37.4715 44.896 37.1995 44.664C36.9355 44.424 36.6275 44.304 36.2755 44.304ZM47.0266 44.136H47.8426V45.888C47.8426 46.464 47.7626 47.032 47.6026 47.592C47.4426 48.144 47.2186 48.668 46.9306 49.164C46.6506 49.652 46.3226 50.084 45.9466 50.46C45.5706 50.836 45.1666 51.132 44.7346 51.348L44.1586 50.556C44.5506 50.364 44.9186 50.104 45.2626 49.776C45.6146 49.448 45.9226 49.072 46.1866 48.648C46.4506 48.224 46.6546 47.776 46.7986 47.304C46.9506 46.832 47.0266 46.36 47.0266 45.888V44.136ZM47.2306 44.136H48.0346V45.888C48.0346 46.344 48.1066 46.8 48.2506 47.256C48.4026 47.704 48.6106 48.128 48.8746 48.528C49.1466 48.92 49.4546 49.268 49.7986 49.572C50.1506 49.876 50.5266 50.116 50.9266 50.292L50.3746 51.084C49.9346 50.876 49.5226 50.596 49.1386 50.244C48.7546 49.892 48.4186 49.488 48.1306 49.032C47.8506 48.568 47.6306 48.072 47.4706 47.544C47.3106 47.008 47.2306 46.456 47.2306 45.888V44.136ZM44.5066 43.692H50.5666V44.52H44.5066V43.692ZM52.0426 42.576H53.0386V53.436H52.0426V42.576Z" fill="#999999"/>
</svg>
