<svg width="54" height="55" viewBox="0 0 54 55" fill="none" xmlns="http://www.w3.org/2000/svg">
<path d="M33.1162 23.15L36.9662 27M35.75 16.375C35.75 18.8614 34.7623 21.246 33.0041 23.0041C31.246 24.7623 28.8614 25.75 26.375 25.75C23.8886 25.75 21.504 24.7623 19.7459 23.0041C17.9877 21.246 17 18.8614 17 16.375C17 13.8886 17.9877 11.504 19.7459 9.74587C21.504 7.98772 23.8886 7 26.375 7C28.8614 7 31.246 7.98772 33.0041 9.74587C34.7623 11.504 35.75 13.8886 35.75 16.375Z" stroke="#999999" stroke-width="2" stroke-linecap="round" stroke-linejoin="round"/>
<path d="M21.0729 44.784H22.1169C22.1169 45.688 21.9129 46.508 21.5049 47.244C21.0969 47.972 20.5169 48.596 19.7649 49.116C19.0209 49.636 18.1289 50.048 17.0889 50.352L16.6809 49.572C17.5929 49.308 18.3769 48.964 19.0329 48.54C19.6889 48.116 20.1929 47.624 20.5449 47.064C20.8969 46.496 21.0729 45.876 21.0729 45.204V44.784ZM17.2329 44.784H21.7449V45.588H17.2329V44.784ZM24.4929 44.088H25.4889V50.268H24.4929V44.088ZM22.1409 46.872H24.6729V47.7H22.1409V46.872ZM18.4929 50.736H25.4889V54.78H18.4929V50.736ZM24.5049 51.528H19.4649V53.976H24.5049V51.528ZM29.868 44.736H30.66V46.176C30.66 46.72 30.56 47.26 30.36 47.796C30.168 48.332 29.884 48.816 29.508 49.248C29.132 49.68 28.676 50.016 28.14 50.256L27.6 49.476C28.072 49.26 28.476 48.972 28.812 48.612C29.156 48.252 29.416 47.86 29.592 47.436C29.776 47.012 29.868 46.592 29.868 46.176V44.736ZM30.036 44.736H30.828V46.176C30.828 46.584 30.912 46.988 31.08 47.388C31.256 47.78 31.508 48.136 31.836 48.456C32.164 48.776 32.556 49.028 33.012 49.212L32.484 49.98C31.964 49.764 31.52 49.46 31.152 49.068C30.784 48.676 30.504 48.232 30.312 47.736C30.128 47.24 30.036 46.72 30.036 46.176V44.736ZM35.796 44.088H36.744V50.64H35.796V44.088ZM34.044 46.908H36.084V47.736H34.044V46.908ZM33.468 44.28H34.404V50.58H33.468V44.28ZM29.472 51.24H36.744V54.936H35.76V52.056H29.472V51.24Z" fill="#999999"/>
</svg>
